# xmcd CD database file
# Copyright (C) 1993-1996 Ti Kan
#
# Track frame offsets:
# 150
# 20702
# 40035
# 70050
# 98287
# 119440
# 156810
# 191705
# 216552
#
# Disc length: 3239 seconds
# Revision: 0
# Processed by: cddbd v1.4b41PL1 Copyright (c) Steve Scherf et al.
# Submitted via: CDSpectrumPro v3.2.327
#
DISCID=780ca509
DTITLE=Too Short - Life is...Too Short
DYEAR=1900
DGENRE=
TTITLE0=Life is...Too Short
TTITLE1=Rhymes
TTITLE2=I Ain't Trippin'
TTITLE3=Nobody Does It Better
TTITLE4=Oakland
TTITLE5=Don't Fight The Feelin'
TTITLE6=CussWords
TTITLE7=City of Dope
TTITLE8=Pimp the Ho
EXTD=
EXTT0=
EXTT1=
EXTT2=
EXTT3=
EXTT4=
EXTT5=
EXTT6=
EXTT7=
EXTT8=
PLAYORDER=
